<svg width="272" height="52" viewBox="0 0 272 52" fill="none" xmlns="http://www.w3.org/2000/svg">
<path d="M17.9261 18.6307C17.8314 17.589 17.41 16.7794 16.6619 16.2017C15.9233 15.6146 14.8674 15.321 13.4943 15.321C12.5852 15.321 11.8277 15.4394 11.2216 15.6761C10.6155 15.9129 10.161 16.2396 9.85795 16.6562C9.55492 17.0634 9.39867 17.5322 9.3892 18.0625C9.37027 18.4981 9.45549 18.8816 9.64489 19.2131C9.84375 19.5445 10.1278 19.8381 10.4972 20.0938C10.8759 20.34 11.3305 20.5578 11.8608 20.7472C12.3911 20.9366 12.9877 21.1023 13.6506 21.2443L16.1506 21.8125C17.59 22.125 18.8589 22.5417 19.9574 23.0625C21.0653 23.5833 21.9934 24.2036 22.7415 24.9233C23.4991 25.643 24.072 26.4716 24.4602 27.4091C24.8485 28.3466 25.0473 29.3977 25.0568 30.5625C25.0473 32.3996 24.5833 33.9763 23.6648 35.2926C22.7462 36.6089 21.4252 37.6174 19.7017 38.3182C17.9877 39.0189 15.9186 39.3693 13.4943 39.3693C11.0606 39.3693 8.93939 39.0047 7.13068 38.2756C5.32197 37.5464 3.91572 36.4384 2.91193 34.9517C1.90814 33.465 1.39205 31.5852 1.36364 29.3125H8.09659C8.15341 30.25 8.40436 31.0312 8.84943 31.6562C9.29451 32.2812 9.9053 32.7547 10.6818 33.0767C11.4678 33.3987 12.3769 33.5597 13.4091 33.5597C14.3561 33.5597 15.161 33.4318 15.8239 33.1761C16.4962 32.9205 17.0123 32.5653 17.3722 32.1108C17.732 31.6562 17.9167 31.1354 17.9261 30.5483C17.9167 29.9991 17.7462 29.5303 17.4148 29.142C17.0833 28.7443 16.572 28.4034 15.8807 28.1193C15.1989 27.8258 14.3277 27.5559 13.267 27.3097L10.2273 26.5994C7.70833 26.0218 5.72443 25.089 4.27557 23.8011C2.8267 22.5038 2.10701 20.7519 2.11648 18.5455C2.10701 16.7462 2.58996 15.1695 3.56534 13.8153C4.54072 12.4612 5.89015 11.4053 7.61364 10.6477C9.33712 9.89015 11.3021 9.51136 13.5085 9.51136C15.7623 9.51136 17.7178 9.89489 19.375 10.6619C21.0417 11.4195 22.3343 12.4848 23.2528 13.858C24.1714 15.2311 24.6402 16.822 24.6591 18.6307H17.9261ZM28.608 47.1818V17.1818H35.483V20.9176H35.696C35.9801 20.2547 36.3826 19.6155 36.9034 19C37.4337 18.3845 38.1061 17.8826 38.9205 17.4943C39.7443 17.0966 40.7292 16.8977 41.875 16.8977C43.3902 16.8977 44.8059 17.2955 46.1222 18.0909C47.4479 18.8864 48.518 20.1127 49.3324 21.7699C50.1468 23.4271 50.554 25.5388 50.554 28.1051C50.554 30.5767 50.161 32.6458 49.375 34.3125C48.5985 35.9792 47.5473 37.2292 46.2216 38.0625C44.9053 38.8958 43.4422 39.3125 41.8324 39.3125C40.7339 39.3125 39.7822 39.1326 38.9773 38.7727C38.1723 38.4129 37.4953 37.9394 36.946 37.3523C36.4062 36.7652 35.9896 36.1354 35.696 35.4631H35.554V47.1818H28.608ZM35.4119 28.0909C35.4119 29.2652 35.5682 30.2879 35.8807 31.1591C36.2027 32.0303 36.6619 32.7074 37.2585 33.1903C37.8646 33.6638 38.589 33.9006 39.4318 33.9006C40.2841 33.9006 41.0085 33.6638 41.6051 33.1903C42.2017 32.7074 42.6515 32.0303 42.9545 31.1591C43.267 30.2879 43.4233 29.2652 43.4233 28.0909C43.4233 26.9167 43.267 25.8987 42.9545 25.0369C42.6515 24.1752 42.2017 23.5076 41.6051 23.0341C41.018 22.5606 40.2936 22.3239 39.4318 22.3239C38.5795 22.3239 37.8551 22.5559 37.2585 23.0199C36.6619 23.4839 36.2027 24.1468 35.8807 25.0085C35.5682 25.8703 35.4119 26.8977 35.4119 28.0909ZM60.3445 39.3693C58.9524 39.3693 57.7166 39.1373 56.6371 38.6733C55.567 38.1998 54.7195 37.4896 54.0945 36.5426C53.4789 35.5862 53.1712 34.3883 53.1712 32.9489C53.1712 31.7367 53.3842 30.714 53.8104 29.8807C54.2365 29.0473 54.8236 28.3703 55.5717 27.8494C56.3198 27.3286 57.1816 26.9356 58.157 26.6705C59.1323 26.3958 60.174 26.2112 61.282 26.1165C62.5225 26.0028 63.5215 25.8845 64.2791 25.7614C65.0367 25.6288 65.5859 25.4441 65.9268 25.2074C66.2772 24.9612 66.4524 24.6155 66.4524 24.1705V24.0994C66.4524 23.3703 66.2015 22.8068 65.6996 22.4091C65.1977 22.0114 64.5206 21.8125 63.6683 21.8125C62.7498 21.8125 62.0111 22.0114 61.4524 22.4091C60.8937 22.8068 60.5386 23.3561 60.3871 24.0568L53.9808 23.8295C54.1702 22.5038 54.6579 21.3201 55.4439 20.2784C56.2393 19.2273 57.3284 18.4034 58.7109 17.8068C60.103 17.2008 61.7744 16.8977 63.7251 16.8977C65.1172 16.8977 66.4003 17.0634 67.5746 17.3949C68.7488 17.7169 69.7715 18.1903 70.6428 18.8153C71.514 19.4309 72.1863 20.1884 72.6598 21.0881C73.1428 21.9877 73.3842 23.0152 73.3842 24.1705V39H66.8501V35.9602H66.6797C66.2914 36.6989 65.7943 37.3239 65.1882 37.8352C64.5916 38.3466 63.8861 38.7301 63.0717 38.9858C62.2668 39.2415 61.3577 39.3693 60.3445 39.3693ZM62.4893 34.8239C63.2375 34.8239 63.9098 34.6723 64.5064 34.3693C65.1125 34.0663 65.5954 33.6496 65.9553 33.1193C66.3151 32.5795 66.495 31.9545 66.495 31.2443V29.1705C66.2962 29.2746 66.0547 29.3693 65.7706 29.4545C65.496 29.5398 65.1929 29.6203 64.8615 29.696C64.5301 29.7718 64.1892 29.8381 63.8388 29.8949C63.4884 29.9517 63.1522 30.0038 62.8303 30.0511C62.1768 30.1553 61.6181 30.3163 61.1541 30.5341C60.6996 30.7519 60.3492 31.036 60.103 31.3864C59.8662 31.7273 59.7479 32.1345 59.7479 32.608C59.7479 33.3277 60.0036 33.8769 60.5149 34.2557C61.0357 34.6345 61.6939 34.8239 62.4893 34.8239ZM77.6314 39V17.1818H84.3786V21.1591H84.6058C85.0036 19.7197 85.6522 18.6496 86.5518 17.9489C87.4515 17.2386 88.4979 16.8835 89.6911 16.8835C90.013 16.8835 90.3445 16.9072 90.6854 16.9545C91.0263 16.9924 91.3435 17.054 91.6371 17.1392V23.1761C91.3056 23.0625 90.87 22.9725 90.3303 22.9062C89.8 22.84 89.3265 22.8068 88.9098 22.8068C88.0859 22.8068 87.3426 22.9915 86.6797 23.3608C86.0263 23.7206 85.5102 24.2273 85.1314 24.8807C84.7621 25.5246 84.5774 26.2822 84.5774 27.1534V39H77.6314ZM103.533 39.4119C101.251 39.4119 99.2815 38.9621 97.6243 38.0625C95.9766 37.1534 94.7076 35.8608 93.8175 34.1847C92.9368 32.4991 92.4964 30.4962 92.4964 28.1761C92.4964 25.9223 92.9415 23.9527 93.8317 22.267C94.7218 20.572 95.9766 19.2557 97.5959 18.3182C99.2152 17.3712 101.123 16.8977 103.32 16.8977C104.873 16.8977 106.294 17.1392 107.582 17.6222C108.87 18.1051 109.982 18.8201 110.92 19.767C111.857 20.714 112.586 21.8835 113.107 23.2756C113.628 24.6581 113.888 26.2443 113.888 28.0341V29.767H94.9254V25.733H107.425C107.416 24.9943 107.241 24.3362 106.9 23.7585C106.559 23.1809 106.09 22.7311 105.494 22.4091C104.906 22.0777 104.229 21.9119 103.462 21.9119C102.686 21.9119 101.99 22.0871 101.374 22.4375C100.759 22.7784 100.271 23.2472 99.9112 23.8438C99.5514 24.4309 99.362 25.0985 99.343 25.8466V29.9517C99.343 30.8419 99.5182 31.6231 99.8686 32.2955C100.219 32.9583 100.716 33.4744 101.36 33.8438C102.004 34.2131 102.771 34.3977 103.661 34.3977C104.277 34.3977 104.835 34.3125 105.337 34.142C105.839 33.9716 106.27 33.7206 106.63 33.3892C106.99 33.0578 107.26 32.6506 107.44 32.1676L113.817 32.3523C113.552 33.7822 112.97 35.0275 112.07 36.0881C111.18 37.1392 110.011 37.9583 108.562 38.5455C107.113 39.1231 105.437 39.4119 103.533 39.4119Z" fill="#FF6349"/>
<g filter="url(#filter0_d_5_7)">
<path d="M121.582 39V12.8182H131.401C133.412 12.8182 135.099 13.1932 136.463 13.9432C137.835 14.6932 138.871 15.7244 139.57 17.0369C140.277 18.3409 140.631 19.8239 140.631 21.4858C140.631 23.1648 140.277 24.6562 139.57 25.9602C138.862 27.2642 137.818 28.2912 136.438 29.0412C135.057 29.7827 133.357 30.1534 131.337 30.1534H124.83V26.2543H130.697C131.874 26.2543 132.837 26.0497 133.587 25.6406C134.337 25.2315 134.891 24.669 135.249 23.9531C135.615 23.2372 135.798 22.4148 135.798 21.4858C135.798 20.5568 135.615 19.7386 135.249 19.0312C134.891 18.3239 134.332 17.7741 133.574 17.3821C132.824 16.9815 131.857 16.7812 130.672 16.7812H126.325V39H121.582ZM149.845 39.3963C148.6 39.3963 147.48 39.1747 146.483 38.7315C145.494 38.2798 144.71 37.6151 144.13 36.7372C143.559 35.8594 143.274 34.777 143.274 33.4901C143.274 32.3821 143.478 31.4659 143.887 30.7415C144.297 30.017 144.855 29.4375 145.562 29.0028C146.27 28.5682 147.066 28.2401 147.953 28.0185C148.848 27.7884 149.772 27.6222 150.727 27.5199C151.877 27.4006 152.811 27.294 153.527 27.2003C154.243 27.098 154.762 26.9446 155.086 26.7401C155.419 26.527 155.585 26.1989 155.585 25.7557V25.679C155.585 24.7159 155.299 23.9702 154.728 23.4418C154.157 22.9134 153.335 22.6491 152.261 22.6491C151.127 22.6491 150.228 22.8963 149.564 23.3906C148.907 23.8849 148.464 24.4687 148.234 25.142L143.913 24.5284C144.254 23.3352 144.816 22.3381 145.6 21.5369C146.385 20.7273 147.343 20.1222 148.477 19.7216C149.61 19.3125 150.863 19.108 152.235 19.108C153.181 19.108 154.123 19.2188 155.061 19.4403C155.998 19.6619 156.855 20.0284 157.63 20.5398C158.406 21.0426 159.028 21.7287 159.497 22.598C159.974 23.4673 160.213 24.554 160.213 25.858V39H155.764V36.3026H155.61C155.329 36.848 154.933 37.3594 154.422 37.8366C153.919 38.3054 153.284 38.6847 152.517 38.9744C151.758 39.2557 150.868 39.3963 149.845 39.3963ZM151.047 35.9957C151.975 35.9957 152.781 35.8125 153.463 35.446C154.145 35.071 154.669 34.5767 155.035 33.9631C155.41 33.3494 155.598 32.6804 155.598 31.956V29.642C155.453 29.7614 155.206 29.8722 154.856 29.9744C154.515 30.0767 154.132 30.1662 153.706 30.2429C153.279 30.3196 152.858 30.3878 152.44 30.4474C152.022 30.5071 151.66 30.5582 151.353 30.6009C150.663 30.6946 150.045 30.848 149.5 31.0611C148.954 31.2741 148.524 31.5724 148.208 31.956C147.893 32.331 147.735 32.8168 147.735 33.4134C147.735 34.2656 148.047 34.9091 148.669 35.3438C149.291 35.7784 150.083 35.9957 151.047 35.9957ZM164.866 39V19.3636H169.353V22.6364H169.558C169.916 21.5028 170.529 20.6293 171.399 20.0156C172.277 19.3935 173.278 19.0824 174.403 19.0824C174.659 19.0824 174.944 19.0952 175.26 19.1207C175.583 19.1378 175.852 19.1676 176.065 19.2102V23.4673C175.869 23.3991 175.558 23.3395 175.132 23.2884C174.714 23.2287 174.309 23.1989 173.917 23.1989C173.074 23.1989 172.315 23.3821 171.642 23.7486C170.977 24.1065 170.453 24.6051 170.069 25.2443C169.686 25.8835 169.494 26.6207 169.494 27.456V39H164.866ZM190 19.3636V22.9432H178.711V19.3636H190ZM181.498 14.6591H186.126V33.0938C186.126 33.7159 186.22 34.1932 186.407 34.5256C186.603 34.8494 186.859 35.071 187.174 35.1903C187.49 35.3097 187.839 35.3693 188.223 35.3693C188.512 35.3693 188.777 35.348 189.015 35.3054C189.262 35.2628 189.45 35.2244 189.578 35.1903L190.358 38.8082C190.11 38.8935 189.757 38.9872 189.297 39.0895C188.845 39.1918 188.291 39.2514 187.635 39.2685C186.475 39.3026 185.431 39.1278 184.502 38.7443C183.574 38.3523 182.836 37.7472 182.291 36.929C181.754 36.1108 181.49 35.0881 181.498 33.8608V14.6591ZM209.109 24.554L204.89 25.0142C204.771 24.5881 204.562 24.1875 204.263 23.8125C203.974 23.4375 203.582 23.1349 203.087 22.9048C202.593 22.6747 201.988 22.5597 201.272 22.5597C200.309 22.5597 199.499 22.7685 198.843 23.1861C198.195 23.6037 197.876 24.1449 197.884 24.8097C197.876 25.3807 198.085 25.8452 198.511 26.2031C198.945 26.5611 199.661 26.8551 200.658 27.0852L204.008 27.8011C205.866 28.2017 207.246 28.8366 208.15 29.706C209.062 30.5753 209.522 31.7131 209.531 33.1193C209.522 34.3551 209.16 35.446 208.444 36.392C207.737 37.3295 206.752 38.0625 205.491 38.5909C204.229 39.1193 202.781 39.3835 201.144 39.3835C198.741 39.3835 196.806 38.8807 195.34 37.875C193.874 36.8608 193.001 35.4503 192.719 33.6435L197.232 33.2088C197.437 34.0952 197.871 34.7642 198.536 35.2159C199.201 35.6676 200.066 35.8935 201.131 35.8935C202.231 35.8935 203.113 35.6676 203.778 35.2159C204.451 34.7642 204.788 34.206 204.788 33.5412C204.788 32.9787 204.57 32.5142 204.136 32.1477C203.71 31.7812 203.045 31.5 202.141 31.304L198.792 30.6009C196.908 30.2088 195.515 29.5483 194.612 28.6193C193.708 27.6818 193.261 26.4972 193.269 25.0653C193.261 23.8551 193.589 22.8068 194.254 21.9205C194.927 21.0256 195.86 20.3352 197.053 19.8494C198.255 19.3551 199.64 19.108 201.208 19.108C203.509 19.108 205.32 19.598 206.641 20.5781C207.971 21.5582 208.793 22.8835 209.109 24.554Z" fill="white" shape-rendering="crispEdges"/>
<path d="M121.582 39H121.082V39.5H121.582V39ZM121.582 12.8182V12.3182H121.082V12.8182H121.582ZM136.463 13.9432L136.222 14.3813L136.223 14.3819L136.463 13.9432ZM139.57 17.0369L139.128 17.2719L139.13 17.2754L139.57 17.0369ZM139.57 25.9602L140.009 26.1986L140.009 26.1986L139.57 25.9602ZM136.438 29.0412L136.674 29.4817L136.676 29.4806L136.438 29.0412ZM124.83 30.1534H124.33V30.6534H124.83V30.1534ZM124.83 26.2543V25.7543H124.33V26.2543H124.83ZM133.587 25.6406L133.826 26.0796L133.826 26.0796L133.587 25.6406ZM135.249 23.9531L134.803 23.7253L134.801 23.7295L135.249 23.9531ZM135.249 19.0312L134.802 19.257L134.805 19.2613L135.249 19.0312ZM133.574 17.3821L133.338 17.8232L133.344 17.8263L133.574 17.3821ZM126.325 16.7812V16.2812H125.825V16.7812H126.325ZM126.325 39V39.5H126.825V39H126.325ZM122.082 39V12.8182H121.082V39H122.082ZM121.582 13.3182H131.401V12.3182H121.582V13.3182ZM131.401 13.3182C133.352 13.3182 134.951 13.6821 136.222 14.3813L136.704 13.5051C135.248 12.7043 133.472 12.3182 131.401 12.3182V13.3182ZM136.223 14.3819C137.514 15.0877 138.478 16.0501 139.128 17.2719L140.011 16.8019C139.264 15.3987 138.156 14.2987 136.703 13.5044L136.223 14.3819ZM139.13 17.2754C139.793 18.4977 140.131 19.897 140.131 21.4858H141.131C141.131 19.7508 140.761 18.1841 140.009 16.7985L139.13 17.2754ZM140.131 21.4858C140.131 23.0926 139.793 24.5002 139.13 25.7218L140.009 26.1986C140.761 24.8123 141.131 23.2369 141.131 21.4858H140.131ZM139.13 25.7218C138.472 26.9357 137.5 27.8951 136.199 28.6018L136.676 29.4806C138.137 28.6873 139.253 27.5927 140.009 26.1986L139.13 25.7218ZM136.201 28.6007C134.911 29.2934 133.297 29.6534 131.337 29.6534V30.6534C133.416 30.6534 135.203 30.2719 136.674 29.4817L136.201 28.6007ZM131.337 29.6534H124.83V30.6534H131.337V29.6534ZM125.33 30.1534V26.2543H124.33V30.1534H125.33ZM124.83 26.7543H130.697V25.7543H124.83V26.7543ZM130.697 26.7543C131.927 26.7543 132.98 26.541 133.826 26.0796L133.347 25.2017C132.693 25.5585 131.82 25.7543 130.697 25.7543V26.7543ZM133.826 26.0796C134.659 25.6251 135.289 24.9902 135.696 24.1767L134.801 23.7295C134.492 24.3478 134.014 24.838 133.347 25.2017L133.826 26.0796ZM135.694 24.181C136.101 23.3843 136.298 22.4817 136.298 21.4858H135.298C135.298 22.3479 135.129 23.0901 134.804 23.7253L135.694 24.181ZM136.298 21.4858C136.298 20.4901 136.102 19.5907 135.693 18.8012L134.805 19.2613C135.129 19.8866 135.298 20.6236 135.298 21.4858H136.298ZM135.695 18.8055C135.286 17.997 134.648 17.3743 133.803 16.9379L133.344 17.8263C134.017 18.174 134.496 18.6507 134.802 19.257L135.695 18.8055ZM133.809 16.9411C132.964 16.4896 131.908 16.2812 130.672 16.2812V17.2812C131.805 17.2812 132.684 17.4735 133.338 17.8231L133.809 16.9411ZM130.672 16.2812H126.325V17.2812H130.672V16.2812ZM125.825 16.7812V39H126.825V16.7812H125.825ZM126.325 38.5H121.582V39.5H126.325V38.5ZM146.483 38.7315L146.275 39.1863L146.28 39.1884L146.483 38.7315ZM144.13 36.7372L143.711 37.0099L143.713 37.0127L144.13 36.7372ZM143.887 30.7415L143.452 30.4956L143.452 30.4956L143.887 30.7415ZM145.562 29.0028L145.3 28.5768L145.3 28.5768L145.562 29.0028ZM147.953 28.0185L148.074 28.5035L148.077 28.5027L147.953 28.0185ZM150.727 27.5199L150.675 27.0226L150.674 27.0227L150.727 27.5199ZM153.527 27.2003L153.592 27.6961L153.597 27.6953L153.527 27.2003ZM155.086 26.7401L155.353 27.1628L155.356 27.161L155.086 26.7401ZM154.728 23.4418L155.068 23.0748L155.068 23.0748L154.728 23.4418ZM149.564 23.3906L149.265 22.9894L149.263 22.9912L149.564 23.3906ZM148.234 25.142L148.164 25.6371L148.573 25.6953L148.707 25.3037L148.234 25.142ZM143.913 24.5284L143.432 24.391L143.275 24.9428L143.843 25.0234L143.913 24.5284ZM145.6 21.5369L145.958 21.8867L145.96 21.8848L145.6 21.5369ZM148.477 19.7216L148.644 20.193L148.647 20.1919L148.477 19.7216ZM157.63 20.5398L157.355 20.9572L157.358 20.9593L157.63 20.5398ZM159.497 22.598L159.057 22.8353L159.059 22.8386L159.497 22.598ZM160.213 39V39.5H160.713V39H160.213ZM155.764 39H155.264V39.5H155.764V39ZM155.764 36.3026H156.264V35.8026H155.764V36.3026ZM155.61 36.3026V35.8026H155.306L155.166 36.0734L155.61 36.3026ZM154.422 37.8366L154.762 38.2024L154.763 38.2022L154.422 37.8366ZM152.517 38.9744L152.691 39.4433L152.693 39.4422L152.517 38.9744ZM153.463 35.446L153.699 35.8865L153.704 35.8841L153.463 35.446ZM155.035 33.9631L154.608 33.7023L154.606 33.7067L155.035 33.9631ZM155.598 29.642H156.098V28.5826L155.28 29.2561L155.598 29.642ZM154.856 29.9744L154.716 29.4946L154.713 29.4955L154.856 29.9744ZM153.706 30.2429L153.794 30.735L153.794 30.735L153.706 30.2429ZM151.353 30.6009L151.421 31.0963L151.422 31.0961L151.353 30.6009ZM149.5 31.0611L149.318 30.5954L149.318 30.5954L149.5 31.0611ZM148.208 31.956L148.591 32.2778L148.595 32.2735L148.208 31.956ZM148.669 35.3438L148.382 35.7536L148.382 35.7536L148.669 35.3438ZM149.845 38.8963C148.661 38.8963 147.611 38.6857 146.686 38.2746L146.28 39.1884C147.349 39.6638 148.54 39.8963 149.845 39.8963V38.8963ZM146.69 38.2768C145.784 37.8626 145.074 37.2587 144.548 36.4617L143.713 37.0127C144.346 37.9715 145.204 38.697 146.275 39.1863L146.69 38.2768ZM144.549 36.4646C144.042 35.6847 143.774 34.7025 143.774 33.4901H142.774C142.774 34.8515 143.076 36.034 143.711 37.0099L144.549 36.4646ZM143.774 33.4901C143.774 32.4407 143.968 31.6159 144.323 30.9873L143.452 30.4956C142.989 31.3159 142.774 32.3235 142.774 33.4901H143.774ZM144.323 30.9873C144.69 30.3365 145.189 29.819 145.824 29.4288L145.3 28.5768C144.521 29.056 143.903 29.6976 143.452 30.4956L144.323 30.9873ZM145.824 29.4288C146.484 29.0235 147.232 28.714 148.074 28.5035L147.832 27.5334C146.901 27.7661 146.055 28.1129 145.3 28.5768L145.824 29.4288ZM148.077 28.5027C148.948 28.2788 149.849 28.1168 150.78 28.017L150.674 27.0227C149.696 27.1275 148.747 27.2979 147.828 27.5342L148.077 28.5027ZM150.778 28.0172C151.931 27.8977 152.869 27.7906 153.592 27.6961L153.462 26.7045C152.752 26.7974 151.824 26.9035 150.675 27.0226L150.778 28.0172ZM153.597 27.6953C154.332 27.5903 154.938 27.4252 155.353 27.1628L154.819 26.3173C154.587 26.464 154.153 26.6057 153.456 26.7053L153.597 27.6953ZM155.356 27.161C155.852 26.8434 156.085 26.3446 156.085 25.7557H155.085C155.085 26.0532 154.986 26.2105 154.816 26.3191L155.356 27.161ZM156.085 25.7557V25.679H155.085V25.7557H156.085ZM156.085 25.679C156.085 24.6121 155.765 23.7195 155.068 23.0748L154.389 23.8087C154.834 24.2208 155.085 24.8197 155.085 25.679H156.085ZM155.068 23.0748C154.374 22.4329 153.412 22.1491 152.261 22.1491V23.1491C153.257 23.1491 153.94 23.3938 154.389 23.8087L155.068 23.0748ZM152.261 22.1491C151.059 22.1491 150.043 22.4111 149.265 22.9894L149.862 23.7919C150.414 23.3815 151.196 23.1491 152.261 23.1491V22.1491ZM149.263 22.9912C148.539 23.5362 148.028 24.1983 147.761 24.9803L148.707 25.3037C148.9 24.7392 149.275 24.2337 149.864 23.79L149.263 22.9912ZM148.304 24.647L143.983 24.0334L143.843 25.0234L148.164 25.6371L148.304 24.647ZM144.394 24.6658C144.714 23.5438 145.238 22.6222 145.958 21.8867L145.243 21.1872C144.395 22.0539 143.793 23.1266 143.432 24.391L144.394 24.6658ZM145.96 21.8848C146.686 21.1343 147.578 20.5696 148.644 20.193L148.31 19.2502C147.109 19.6747 146.083 20.3202 145.241 21.1891L145.96 21.8848ZM148.647 20.1919C149.719 19.805 150.913 19.608 152.235 19.608V18.608C150.813 18.608 149.502 18.82 148.307 19.2513L148.647 20.1919ZM152.235 19.608C153.142 19.608 154.045 19.7141 154.946 19.9269L155.176 18.9537C154.201 18.7234 153.221 18.608 152.235 18.608V19.608ZM154.946 19.9269C155.828 20.1355 156.63 20.4793 157.355 20.9572L157.906 20.1223C157.079 19.5775 156.168 19.1883 155.176 18.9537L154.946 19.9269ZM157.358 20.9593C158.059 21.4134 158.625 22.0347 159.057 22.8353L159.937 22.3607C159.431 21.4227 158.753 20.6719 157.902 20.1202L157.358 20.9593ZM159.059 22.8386C159.485 23.6146 159.713 24.6125 159.713 25.858H160.713C160.713 24.4955 160.464 23.32 159.935 22.3574L159.059 22.8386ZM159.713 25.858V39H160.713V25.858H159.713ZM160.213 38.5H155.764V39.5H160.213V38.5ZM156.264 39V36.3026H155.264V39H156.264ZM155.764 35.8026H155.61V36.8026H155.764V35.8026ZM155.166 36.0734C154.915 36.5612 154.556 37.0276 154.08 37.4711L154.763 38.2022C155.31 37.6911 155.744 37.1348 156.055 36.5317L155.166 36.0734ZM154.081 37.4709C153.634 37.8876 153.058 38.2356 152.34 38.5067L152.693 39.4422C153.51 39.1337 154.204 38.7232 154.762 38.2024L154.081 37.4709ZM152.343 38.5056C151.652 38.7616 150.823 38.8963 149.845 38.8963V39.8963C150.912 39.8963 151.864 39.7498 152.691 39.4432L152.343 38.5056ZM151.047 36.4957C152.042 36.4957 152.932 36.2991 153.699 35.8864L153.226 35.0056C152.63 35.3259 151.909 35.4957 151.047 35.4957V36.4957ZM153.704 35.8841C154.456 35.4703 155.048 34.916 155.464 34.2194L154.606 33.7067C154.289 34.2374 153.833 34.6718 153.222 35.0079L153.704 35.8841ZM155.462 34.2238C155.885 33.531 156.098 32.7717 156.098 31.956H155.098C155.098 32.5891 154.935 33.1678 154.609 33.7023L155.462 34.2238ZM156.098 31.956V29.642H155.098V31.956H156.098ZM155.28 29.2561C155.216 29.3087 155.05 29.3968 154.716 29.4946L154.997 30.4543C155.361 30.3475 155.69 30.2141 155.916 30.028L155.28 29.2561ZM154.713 29.4955C154.393 29.5913 154.028 29.6768 153.617 29.7508L153.794 30.735C154.235 30.6556 154.637 30.5621 155 30.4533L154.713 29.4955ZM153.617 29.7508C153.197 29.8265 152.781 29.8937 152.369 29.9525L152.511 30.9424C152.934 30.8819 153.362 30.8127 153.794 30.735L153.617 29.7508ZM152.369 29.9525C151.952 30.0121 151.591 30.0631 151.285 30.1056L151.422 31.0961C151.73 31.0534 152.093 31.0021 152.511 30.9424L152.369 29.9525ZM151.286 30.1054C150.564 30.2035 149.906 30.3655 149.318 30.5954L149.682 31.5268C150.184 31.3306 150.762 31.1857 151.421 31.0963L151.286 30.1054ZM149.318 30.5954C148.707 30.8339 148.201 31.1779 147.822 31.6384L148.595 32.2735C148.847 31.967 149.201 31.7144 149.682 31.5268L149.318 30.5954ZM147.826 31.6342C147.419 32.1177 147.235 32.7256 147.235 33.4134H148.235C148.235 32.9079 148.367 32.5442 148.591 32.2778L147.826 31.6342ZM147.235 33.4134C147.235 34.4056 147.608 35.2128 148.382 35.7536L148.955 34.9339C148.485 34.6054 148.235 34.1256 148.235 33.4134H147.235ZM148.382 35.7536C149.109 36.261 150.009 36.4957 151.047 36.4957V35.4957C150.158 35.4957 149.473 35.2958 148.955 34.9339L148.382 35.7536ZM164.866 39H164.366V39.5H164.866V39ZM164.866 19.3636V18.8636H164.366V19.3636H164.866ZM169.353 19.3636H169.853V18.8636H169.353V19.3636ZM169.353 22.6364H168.853V23.1364H169.353V22.6364ZM169.558 22.6364V23.1364H169.924L170.035 22.7869L169.558 22.6364ZM171.399 20.0156L171.687 20.4241L171.688 20.4236L171.399 20.0156ZM175.26 19.1207L175.219 19.6191L175.226 19.6197L175.233 19.62L175.26 19.1207ZM176.065 19.2102H176.565V18.8003L176.163 18.7199L176.065 19.2102ZM176.065 23.4673L175.901 23.9396L176.565 24.1706V23.4673H176.065ZM175.132 23.2884L175.061 23.7835L175.072 23.7848L175.132 23.2884ZM171.642 23.7486L171.879 24.1888L171.881 24.1877L171.642 23.7486ZM169.494 39V39.5H169.994V39H169.494ZM165.366 39V19.3636H164.366V39H165.366ZM164.866 19.8636H169.353V18.8636H164.866V19.8636ZM168.853 19.3636V22.6364H169.853V19.3636H168.853ZM169.353 23.1364H169.558V22.1364H169.353V23.1364ZM170.035 22.7869C170.364 21.7448 170.918 20.9673 171.687 20.4241L171.11 19.6071C170.141 20.2912 169.468 21.2609 169.081 22.4858L170.035 22.7869ZM171.688 20.4236C172.477 19.8641 173.377 19.5824 174.403 19.5824V18.5824C173.179 18.5824 172.076 18.9228 171.11 19.6077L171.688 20.4236ZM174.403 19.5824C174.643 19.5824 174.914 19.5944 175.219 19.6191L175.3 18.6224C174.974 18.596 174.675 18.5824 174.403 18.5824V19.5824ZM175.233 19.62C175.544 19.6364 175.786 19.6643 175.967 19.7005L176.163 18.7199C175.918 18.6709 175.623 18.6392 175.286 18.6214L175.233 19.62ZM175.565 19.2102V23.4673H176.565V19.2102H175.565ZM176.229 22.9951C175.98 22.9083 175.624 22.8438 175.191 22.7919L175.072 23.7848C175.492 23.8352 175.758 23.89 175.901 23.9396L176.229 22.9951ZM175.202 22.7934C174.763 22.7306 174.335 22.6989 173.917 22.6989V23.6989C174.284 23.6989 174.665 23.7268 175.061 23.7833L175.202 22.7934ZM173.917 22.6989C172.999 22.6989 172.156 22.8991 171.403 23.3094L171.881 24.1877C172.473 23.8651 173.148 23.6989 173.917 23.6989V22.6989ZM171.405 23.3083C170.662 23.7084 170.071 24.2697 169.641 24.9871L170.498 25.5016C170.835 24.9405 171.292 24.5047 171.879 24.1888L171.405 23.3083ZM169.641 24.9871C169.205 25.713 168.994 26.5413 168.994 27.456H169.994C169.994 26.7002 170.167 26.054 170.498 25.5016L169.641 24.9871ZM168.994 27.456V39H169.994V27.456H168.994ZM169.494 38.5H164.866V39.5H169.494V38.5ZM190 19.3636H190.5V18.8636H190V19.3636ZM190 22.9432V23.4432H190.5V22.9432H190ZM178.711 22.9432H178.211V23.4432H178.711V22.9432ZM178.711 19.3636V18.8636H178.211V19.3636H178.711ZM181.498 14.6591V14.1591H180.998V14.6591H181.498ZM186.126 14.6591H186.626V14.1591H186.126V14.6591ZM186.407 34.5256L185.972 34.7712L185.976 34.7779L185.98 34.7845L186.407 34.5256ZM187.174 35.1903L186.997 35.658L186.997 35.658L187.174 35.1903ZM189.015 35.3054L188.93 34.8127L188.927 34.8132L189.015 35.3054ZM189.578 35.1903L190.067 35.085L189.956 34.572L189.449 34.7072L189.578 35.1903ZM190.358 38.8082L190.521 39.2809L190.94 39.1364L190.846 38.7029L190.358 38.8082ZM189.297 39.0895L189.188 38.6014L189.186 38.6018L189.297 39.0895ZM187.635 39.2685L187.622 38.7686L187.62 38.7687L187.635 39.2685ZM184.502 38.7443L184.308 39.205L184.312 39.2065L184.502 38.7443ZM182.291 36.929L181.873 37.2033L181.875 37.2063L182.291 36.929ZM181.498 33.8608L181.998 33.8643V33.8608H181.498ZM189.5 19.3636V22.9432H190.5V19.3636H189.5ZM190 22.4432H178.711V23.4432H190V22.4432ZM179.211 22.9432V19.3636H178.211V22.9432H179.211ZM178.711 19.8636H190V18.8636H178.711V19.8636ZM181.498 15.1591H186.126V14.1591H181.498V15.1591ZM185.626 14.6591V33.0938H186.626V14.6591H185.626ZM185.626 33.0938C185.626 33.7535 185.723 34.3307 185.972 34.7712L186.843 34.2799C186.716 34.0557 186.626 33.6783 186.626 33.0938H185.626ZM185.98 34.7845C186.226 35.1916 186.565 35.4943 186.997 35.658L187.351 34.7227C187.153 34.6478 186.981 34.5073 186.835 34.2667L185.98 34.7845ZM186.997 35.658C187.377 35.8014 187.787 35.8693 188.223 35.8693V34.8693C187.891 34.8693 187.603 34.8179 187.351 34.7227L186.997 35.658ZM188.223 35.8693C188.536 35.8693 188.831 35.8463 189.103 35.7976L188.927 34.8132C188.723 34.8497 188.488 34.8693 188.223 34.8693V35.8693ZM189.1 35.7981C189.352 35.7548 189.557 35.7134 189.707 35.6735L189.449 34.7072C189.343 34.7354 189.173 34.7708 188.93 34.8127L189.1 35.7981ZM189.089 35.2957L189.869 38.9136L190.846 38.7029L190.067 35.085L189.089 35.2957ZM190.195 38.3356C189.974 38.4116 189.642 38.5005 189.188 38.6014L189.405 39.5776C189.872 39.4739 190.247 39.3753 190.521 39.2809L190.195 38.3356ZM189.186 38.6018C188.777 38.6946 188.257 38.7521 187.622 38.7686L187.648 39.7683C188.324 39.7507 188.913 39.689 189.407 39.5771L189.186 38.6018ZM187.62 38.7687C186.52 38.801 185.548 38.635 184.693 38.2822L184.312 39.2065C185.315 39.6207 186.431 39.8041 187.649 39.7682L187.62 38.7687ZM184.697 38.2837C183.856 37.9287 183.197 37.3862 182.707 36.6516L181.875 37.2063C182.476 38.1082 183.291 38.7759 184.308 39.205L184.697 38.2837ZM182.709 36.6546C182.238 35.9377 181.99 35.018 181.998 33.8643L180.998 33.8573C180.989 35.1582 181.269 36.2839 181.873 37.2033L182.709 36.6546ZM181.998 33.8608V14.6591H180.998V33.8608H181.998ZM209.109 24.554L209.163 25.051L209.7 24.9924L209.6 24.4612L209.109 24.554ZM204.89 25.0142L204.408 25.149L204.523 25.5572L204.944 25.5113L204.89 25.0142ZM204.263 23.8125L203.868 24.1183L203.872 24.1238L204.263 23.8125ZM203.087 22.9048L203.298 22.4515L203.298 22.4515L203.087 22.9048ZM198.843 23.1861L198.575 22.7642L198.572 22.7658L198.843 23.1861ZM197.884 24.8097L198.384 24.8171L198.384 24.8032L197.884 24.8097ZM198.511 26.2031L198.189 26.586L198.193 26.5891L198.511 26.2031ZM200.658 27.0852L200.546 27.5725L200.554 27.5742L200.658 27.0852ZM204.008 27.8011L204.113 27.3124L204.112 27.3122L204.008 27.8011ZM208.15 29.706L207.803 30.0663L207.805 30.0679L208.15 29.706ZM209.531 33.1193L210.031 33.1228L210.031 33.1163L209.531 33.1193ZM208.444 36.392L208.045 36.0903L208.045 36.0909L208.444 36.392ZM205.491 38.5909L205.684 39.0521L205.491 38.5909ZM195.34 37.875L195.056 38.2862L195.057 38.2873L195.34 37.875ZM192.719 33.6435L192.672 33.1458L192.144 33.1966L192.225 33.7204L192.719 33.6435ZM197.232 33.2088L197.719 33.0964L197.621 32.6691L197.184 32.7111L197.232 33.2088ZM198.536 35.2159L198.817 34.8023L198.817 34.8023L198.536 35.2159ZM203.778 35.2159L203.499 34.8007L203.497 34.8023L203.778 35.2159ZM204.136 32.1477L203.81 32.5268L203.813 32.53L204.136 32.1477ZM202.141 31.304L202.247 30.8153L202.244 30.8146L202.141 31.304ZM198.792 30.6009L198.895 30.1115L198.894 30.1113L198.792 30.6009ZM194.612 28.6193L194.251 28.9663L194.253 28.9679L194.612 28.6193ZM193.269 25.0653L193.769 25.0683L193.769 25.0618L193.269 25.0653ZM194.254 21.9205L193.854 21.6198L193.854 21.6205L194.254 21.9205ZM197.053 19.8494L197.242 20.3125L197.243 20.3118L197.053 19.8494ZM206.641 20.5781L206.343 20.9797L206.345 20.9806L206.641 20.5781ZM209.054 24.0569L204.836 24.5172L204.944 25.5113L209.163 25.051L209.054 24.0569ZM205.371 24.8794C205.233 24.3839 204.991 23.9241 204.655 23.5012L203.872 24.1238C204.132 24.4509 204.309 24.7923 204.408 25.149L205.371 24.8794ZM204.659 23.5068C204.314 23.0596 203.854 22.7103 203.298 22.4515L202.876 23.3581C203.309 23.5596 203.634 23.8154 203.868 24.1182L204.659 23.5068ZM203.298 22.4515C202.721 22.1826 202.039 22.0597 201.272 22.0597V23.0597C201.937 23.0597 202.465 23.1668 202.876 23.3581L203.298 22.4515ZM201.272 22.0597C200.237 22.0597 199.328 22.2847 198.575 22.7642L199.111 23.6079C199.67 23.2523 200.381 23.0597 201.272 23.0597V22.0597ZM198.572 22.7658C197.807 23.2593 197.373 23.9492 197.384 24.8161L198.384 24.8032C198.378 24.3406 198.584 23.9481 199.114 23.6063L198.572 22.7658ZM197.384 24.8022C197.374 25.519 197.644 26.1284 198.189 26.586L198.832 25.8203C198.525 25.5619 198.378 25.2424 198.384 24.8171L197.384 24.8022ZM198.193 26.5891C198.718 27.0216 199.525 27.3369 200.546 27.5724L200.771 26.598C199.797 26.3733 199.173 26.1006 198.829 25.8172L198.193 26.5891ZM200.554 27.5742L203.903 28.2901L204.112 27.3122L200.763 26.5963L200.554 27.5742ZM203.902 28.2899C205.713 28.6803 206.993 29.2864 207.803 30.0663L208.497 29.3457C207.5 28.3868 206.018 27.7231 204.113 27.3124L203.902 28.2899ZM207.805 30.0679C208.607 30.8322 209.023 31.8345 209.031 33.1223L210.031 33.1163C210.021 31.5917 209.517 30.3183 208.495 29.3441L207.805 30.0679ZM209.031 33.1159C209.023 34.2487 208.693 35.234 208.045 36.0903L208.843 36.6938C209.626 35.6581 210.021 34.4615 210.031 33.1228L209.031 33.1159ZM208.045 36.0909C207.399 36.9469 206.491 37.6298 205.298 38.1297L205.684 39.0521C207.013 38.4952 208.074 37.7122 208.843 36.6932L208.045 36.0909ZM205.298 38.1297C204.108 38.628 202.727 38.8835 201.144 38.8835V39.8835C202.834 39.8835 204.351 39.6106 205.684 39.0521L205.298 38.1297ZM201.144 38.8835C198.807 38.8835 196.981 38.3943 195.623 37.4627L195.057 38.2873C196.631 39.367 198.675 39.8835 201.144 39.8835V38.8835ZM195.625 37.4638C194.275 36.5298 193.474 35.2419 193.214 33.5666L192.225 33.7204C192.527 35.6587 193.474 37.1917 195.056 38.2862L195.625 37.4638ZM192.767 34.1412L197.28 33.7065L197.184 32.7111L192.672 33.1458L192.767 34.1412ZM196.745 33.3212C196.974 34.3129 197.472 35.0975 198.255 35.6295L198.817 34.8023C198.271 34.4309 197.9 33.8774 197.719 33.0964L196.745 33.3212ZM198.255 35.6295C199.026 36.1532 199.998 36.3935 201.131 36.3935V35.3935C200.134 35.3935 199.376 35.182 198.817 34.8023L198.255 35.6295ZM201.131 36.3935C202.295 36.3935 203.286 36.1548 204.059 35.6295L203.497 34.8023C202.94 35.1805 202.166 35.3935 201.131 35.3935V36.3935ZM204.056 35.6311C204.833 35.1098 205.288 34.4105 205.288 33.5412H204.288C204.288 34.0015 204.069 34.4186 203.499 34.8007L204.056 35.6311ZM205.288 33.5412C205.288 32.8295 205.004 32.2258 204.458 31.7655L203.813 32.53C204.137 32.8026 204.288 33.1279 204.288 33.5412H205.288ZM204.462 31.7686C203.944 31.3236 203.186 31.0189 202.247 30.8153L202.035 31.7926C202.904 31.9811 203.475 32.2389 203.81 32.5268L204.462 31.7686ZM202.244 30.8146L198.895 30.1115L198.689 31.0902L202.039 31.7933L202.244 30.8146ZM198.894 30.1113C197.063 29.7303 195.778 29.1013 194.97 28.2707L194.253 28.9679C195.252 29.9953 196.753 30.6873 198.69 31.0904L198.894 30.1113ZM194.972 28.2724C194.168 27.4386 193.761 26.3839 193.769 25.0683L192.769 25.0624C192.76 26.6104 193.248 27.9251 194.251 28.9663L194.972 28.2724ZM193.769 25.0618C193.761 23.9503 194.061 23.0111 194.654 22.2205L193.854 21.6205C193.117 22.6025 192.76 23.7599 192.769 25.0689L193.769 25.0618ZM194.653 22.2211C195.264 21.4087 196.12 20.7694 197.242 20.3125L196.865 19.3863C195.601 19.901 194.589 20.6424 193.854 21.6198L194.653 22.2211ZM197.243 20.3118C198.374 19.8469 199.692 19.608 201.208 19.608V18.608C199.588 18.608 198.136 18.8633 196.863 19.387L197.243 20.3118ZM201.208 19.608C203.444 19.608 205.137 20.0845 206.343 20.9797L206.939 20.1766C205.504 19.1115 203.575 18.608 201.208 18.608V19.608ZM206.345 20.9806C207.569 21.8834 208.325 23.0964 208.617 24.6467L209.6 24.4612C209.262 22.6707 208.372 21.2331 206.938 20.1757L206.345 20.9806Z" fill="black" fill-opacity="0.8"/>
</g>
<defs>
<filter id="filter0_d_5_7" x="117.582" y="12.8182" width="95.9482" height="34.5781" filterUnits="userSpaceOnUse" color-interpolation-filters="sRGB">
<feFlood flood-opacity="0" result="BackgroundImageFix"/>
<feColorMatrix in="SourceAlpha" type="matrix" values="0 0 0 0 0 0 0 0 0 0 0 0 0 0 0 0 0 0 127 0" result="hardAlpha"/>
<feOffset dy="4"/>
<feGaussianBlur stdDeviation="2"/>
<feComposite in2="hardAlpha" operator="out"/>
<feColorMatrix type="matrix" values="0 0 0 0 0 0 0 0 0 0 0 0 0 0 0 0 0 0 0.25 0"/>
<feBlend mode="normal" in2="BackgroundImageFix" result="effect1_dropShadow_5_7"/>
<feBlend mode="normal" in="SourceGraphic" in2="effect1_dropShadow_5_7" result="shape"/>
</filter>
</defs>
</svg>
