<svg width="829" height="798" viewBox="0 0 829 798" fill="none" xmlns="http://www.w3.org/2000/svg">
<rect x="5.5" y="5.5" width="818" height="787" fill="#F01212" stroke="#DA2929" stroke-width="11"/>
<path d="M596.062 268.917L610.452 298.343C610.969 299.401 611.652 300.367 612.47 301.205L635.315 324.569C639.517 328.867 646.342 328.867 650.544 324.569L703.848 270.054C708.051 265.756 708.051 258.776 703.848 254.478L681.003 231.114C680.184 230.276 679.238 229.578 678.205 229.05L649.364 214.302C643.271 207.751 641.896 203.492 640.17 198.167C638.269 192.303 635.909 185.005 627.7 176.598C560.484 107.854 483.302 96.0467 415.939 144.21C413.063 146.274 411.347 149.645 411.347 153.235V184.386C411.347 188.086 413.297 191.456 416.32 193.5C419.322 195.544 423.29 195.834 426.615 194.398C455.124 182.022 482.161 170.296 515.779 189.242L504.079 225.16L400.573 331.029C361.621 291.152 327.623 250.358 299.913 209.763C300.098 209.134 301.365 194.396 300.049 188.343C292.873 155.487 253.425 132.96 221.084 132.541C217.301 132.491 213.772 134.395 211.656 137.616C209.55 140.827 209.18 144.915 210.671 148.465L230.219 195.093L187.056 217.17L168.035 171.773C166.612 168.412 163.716 165.94 160.215 165.132C156.735 164.325 153.069 165.282 150.378 167.705C123.76 191.578 117.403 237.896 136.689 266.654C143.085 276.197 157.846 292.9 188.325 290.058C190.685 291.444 190.685 291.444 191.513 291.992C238.05 322.794 318.108 384.21 318.108 384.21L179.209 526.277L134.407 556.821C132.408 558.178 130.916 560.182 130.166 562.505L122.551 585.868C121.265 589.827 122.269 594.184 125.154 597.136L186.072 659.439C188.958 662.391 193.219 663.418 197.09 662.101L219.935 654.314C222.206 653.536 224.166 652.011 225.492 649.976L255.357 604.156L399.277 456.964C399.404 456.834 399.501 456.675 399.628 456.545C440.081 496.213 474.039 536.219 501.73 576.965C499.108 583.018 498.21 586.507 498.21 586.507C496.816 593.916 497.069 600.816 498.386 606.869C505.562 639.726 545.01 662.252 577.351 662.671C581.134 662.722 584.663 660.817 586.779 657.595C588.876 654.384 589.246 650.296 587.764 646.746L568.216 600.118L611.379 578.041L630.402 623.442C631.815 626.803 634.721 629.275 638.211 630.083C641.702 630.89 645.358 629.933 648.049 627.509C674.667 603.637 681.024 557.319 661.738 528.56C655.615 519.426 640.639 503.96 612.618 505.147C552.674 465.28 497.07 421.774 447.55 376.452L551.573 270.064C563.77 257.579 583.396 257.19 596.062 268.917ZM155.107 253.73C145.201 238.962 145.825 215.698 154.873 198.367L171.184 237.307C172.403 240.199 174.724 242.452 177.609 243.53C180.495 244.616 183.693 244.438 186.442 243.031L249.612 210.722C254.916 207.98 257.217 201.568 254.888 196.004L239.18 158.52C257.423 164.274 274.758 177.387 278.24 193.321C282.637 213.435 263.361 235.262 223.669 254.986C191.494 272.128 167.147 271.69 155.107 253.73ZM218.062 282.528C219.427 282.069 229.528 277.622 233.711 275.388C255.356 264.639 270.517 253.71 280.901 243.09C283.933 239.989 286.429 236.938 288.691 233.907C288.798 233.717 288.886 233.557 288.983 233.378C314.109 268.898 343.818 304.457 377.241 339.368L335.891 369.582C300.274 340.514 261.079 311.546 218.062 282.528ZM383.413 442.026L239.367 589.349C238.859 589.868 238.411 590.426 238.021 591.034L209.609 634.611L196.583 639.048L145.083 586.377L149.421 573.055L192.029 543.997C192.625 543.599 193.17 543.13 193.677 542.621L337.725 395.299L382.877 362.313L415.667 395.848L383.413 442.026ZM643.3 541.474C653.207 556.252 652.583 579.517 643.544 596.837L627.232 557.897C626.013 555.005 623.693 552.752 620.808 551.675C617.923 550.597 614.723 550.777 611.974 552.183L548.804 584.491C543.5 587.234 541.199 593.646 543.529 599.209L559.236 636.693C540.994 630.939 523.658 617.827 520.177 601.892C515.779 581.779 535.056 559.951 574.748 540.227C606.914 523.086 631.259 523.525 643.3 541.474ZM582.344 512.047C580.199 512.725 568.889 517.592 564.706 519.815C543.061 530.564 527.9 541.493 517.516 552.113C516.297 553.36 515.439 554.576 514.376 555.812C486.403 515.886 452.629 476.687 412.781 437.867C412.781 437.867 438.99 399.965 439.252 399.426C482.864 438.815 530.931 476.738 582.344 512.047ZM422.111 371.297L406.882 355.721L513.479 246.7L528.709 262.276L422.111 371.297ZM525.803 228.153L538.927 187.886C540.477 183.15 538.692 177.924 534.636 175.212C495.207 148.627 461.394 156.614 432.876 167.953V159.108C468.327 135.664 535.036 112.989 612.471 192.184C617.074 196.891 618.126 200.152 619.726 205.088C621.9 211.799 624.601 220.164 635.316 231.124C636.135 231.962 637.081 232.66 638.114 233.188L667.003 247.956L680.994 262.265L642.92 301.205L628.929 286.896L614.489 257.35C613.973 256.293 613.289 255.326 612.471 254.488C594.083 235.682 565.603 233.348 544.708 247.489L525.803 228.153Z" fill="white"/>
</svg>
