<svg width="1940" height="800" viewBox="0 0 1910 798" fill="none" xmlns="http://www.w3.org/2000/svg">
<rect x="6" y="6" width="1990" height="795" fill="white" stroke="#F01212" stroke-width="12"/>
<rect x="5.5" y="5.5" width="818" height="787" fill="black" stroke="#DA2929" stroke-width="11"/>
<path d="M596.062 268.917L610.452 298.343C610.969 299.401 611.652 300.367 612.47 301.205L635.315 324.569C639.517 328.867 646.342 328.867 650.544 324.569L703.848 270.054C708.051 265.756 708.051 258.776 703.848 254.478L681.003 231.114C680.184 230.276 679.238 229.578 678.205 229.05L649.364 214.302C643.271 207.751 641.896 203.492 640.17 198.167C638.269 192.303 635.909 185.005 627.7 176.598C560.484 107.854 483.302 96.0467 415.939 144.21C413.063 146.274 411.347 149.645 411.347 153.235V184.386C411.347 188.086 413.297 191.456 416.32 193.5C419.322 195.544 423.29 195.834 426.615 194.398C455.124 182.022 482.161 170.296 515.779 189.242L504.079 225.16L400.573 331.029C361.621 291.152 327.623 250.358 299.913 209.763C300.098 209.134 301.365 194.396 300.049 188.343C292.873 155.487 253.425 132.96 221.084 132.541C217.301 132.491 213.772 134.395 211.656 137.616C209.55 140.827 209.18 144.915 210.671 148.465L230.219 195.093L187.056 217.17L168.035 171.773C166.612 168.412 163.716 165.94 160.215 165.132C156.735 164.325 153.069 165.282 150.378 167.705C123.76 191.578 117.403 237.896 136.689 266.654C143.085 276.197 157.846 292.9 188.325 290.058C190.685 291.444 190.685 291.444 191.513 291.992C238.05 322.794 318.108 384.21 318.108 384.21L179.209 526.277L134.407 556.821C132.408 558.178 130.916 560.182 130.166 562.505L122.551 585.868C121.265 589.827 122.269 594.184 125.154 597.136L186.072 659.439C188.958 662.391 193.219 663.418 197.09 662.101L219.935 654.314C222.206 653.536 224.166 652.011 225.492 649.976L255.357 604.156L399.277 456.964C399.404 456.834 399.501 456.675 399.628 456.545C440.081 496.213 474.039 536.219 501.73 576.965C499.108 583.018 498.21 586.507 498.21 586.507C496.816 593.916 497.069 600.816 498.386 606.869C505.562 639.726 545.01 662.252 577.351 662.671C581.134 662.722 584.663 660.817 586.779 657.595C588.876 654.384 589.246 650.296 587.764 646.746L568.216 600.118L611.379 578.041L630.402 623.442C631.815 626.803 634.721 629.275 638.211 630.083C641.702 630.89 645.358 629.933 648.049 627.509C674.667 603.637 681.024 557.319 661.738 528.56C655.615 519.426 640.639 503.96 612.618 505.147C552.674 465.28 497.07 421.774 447.55 376.452L551.573 270.064C563.77 257.579 583.396 257.19 596.062 268.917ZM155.107 253.73C145.201 238.962 145.825 215.698 154.873 198.367L171.184 237.307C172.403 240.199 174.724 242.452 177.609 243.53C180.495 244.616 183.693 244.438 186.442 243.031L249.612 210.722C254.916 207.98 257.217 201.568 254.888 196.004L239.18 158.52C257.423 164.274 274.758 177.387 278.24 193.321C282.637 213.435 263.361 235.262 223.669 254.986C191.494 272.128 167.147 271.69 155.107 253.73ZM218.062 282.528C219.427 282.069 229.528 277.622 233.711 275.388C255.356 264.639 270.517 253.71 280.901 243.09C283.933 239.989 286.429 236.938 288.691 233.907C288.798 233.717 288.886 233.557 288.983 233.378C314.109 268.898 343.818 304.457 377.241 339.368L335.891 369.582C300.274 340.514 261.079 311.546 218.062 282.528ZM383.413 442.026L239.367 589.349C238.859 589.868 238.411 590.426 238.021 591.034L209.609 634.611L196.583 639.048L145.083 586.377L149.421 573.055L192.029 543.997C192.625 543.599 193.17 543.13 193.677 542.621L337.725 395.299L382.877 362.313L415.667 395.848L383.413 442.026ZM643.3 541.474C653.207 556.252 652.583 579.517 643.544 596.837L627.232 557.897C626.013 555.005 623.693 552.752 620.808 551.675C617.923 550.597 614.723 550.777 611.974 552.183L548.804 584.491C543.5 587.234 541.199 593.646 543.529 599.209L559.236 636.693C540.994 630.939 523.658 617.827 520.177 601.892C515.779 581.779 535.056 559.951 574.748 540.227C606.914 523.086 631.259 523.525 643.3 541.474ZM582.344 512.047C580.199 512.725 568.889 517.592 564.706 519.815C543.061 530.564 527.9 541.493 517.516 552.113C516.297 553.36 515.439 554.576 514.376 555.812C486.403 515.886 452.629 476.687 412.781 437.867C412.781 437.867 438.99 399.965 439.252 399.426C482.864 438.815 530.931 476.738 582.344 512.047ZM422.111 371.297L406.882 355.721L513.479 246.7L528.709 262.276L422.111 371.297ZM525.803 228.153L538.927 187.886C540.477 183.15 538.692 177.924 534.636 175.212C495.207 148.627 461.394 156.614 432.876 167.953V159.108C468.327 135.664 535.036 112.989 612.471 192.184C617.074 196.891 618.126 200.152 619.726 205.088C621.9 211.799 624.601 220.164 635.316 231.124C636.135 231.962 637.081 232.66 638.114 233.188L667.003 247.956L680.994 262.265L642.92 301.205L628.929 286.896L614.489 257.35C613.973 256.293 613.289 255.326 612.471 254.488C594.083 235.682 565.603 233.348 544.708 247.489L525.803 228.153Z" fill="white"/>
<path d="M1127.55 258.152C1127.55 272.488 1124.73 285.544 1119.1 297.32C1113.73 308.84 1106.3 318.824 1096.83 327.272C1087.61 335.72 1076.61 342.248 1063.81 346.856C1051.26 351.464 1037.69 353.768 1023.1 353.768C1012.86 353.768 1002.62 351.08 992.382 345.704C982.142 340.072 972.286 331.24 962.814 319.208L991.23 263.528C993.022 266.856 995.71 270.312 999.294 273.896C1002.88 277.224 1006.85 280.168 1011.2 282.728C1015.81 285.288 1020.29 287.464 1024.64 289.256C1029.25 290.792 1033.34 291.56 1036.93 291.56C1040 291.56 1043.2 291.048 1046.53 290.024C1049.85 289 1052.93 287.464 1055.74 285.416C1058.56 283.368 1060.73 281.064 1062.27 278.504C1064.06 275.688 1064.96 272.488 1064.96 268.904C1064.96 262.76 1062.91 257.128 1058.81 252.008C1054.97 246.632 1050.11 241.64 1044.22 237.032C1038.33 232.168 1031.93 227.304 1025.02 222.44C1018.11 217.576 1011.71 212.456 1005.82 207.08C1000.19 201.704 995.326 195.688 991.23 189.032C987.134 182.376 985.086 174.952 985.086 166.76C985.086 153.448 989.054 141.032 996.99 129.512C1004.93 117.992 1014.78 108.136 1026.56 99.944C1038.59 91.496 1051.65 84.84 1065.73 79.976C1079.81 75.112 1093.12 72.68 1105.66 72.68C1112.57 72.68 1119.1 73.576 1125.25 75.368C1131.39 76.904 1136.64 79.592 1140.99 83.432C1145.6 87.016 1149.18 91.624 1151.74 97.256C1154.56 102.888 1155.97 109.928 1155.97 118.376C1155.97 121.96 1155.58 125.544 1154.81 129.128C1154.3 132.712 1153.79 136.552 1153.28 140.648L1097.6 156.776C1098.11 154.728 1098.49 152.68 1098.75 150.632C1099.26 148.584 1099.52 146.536 1099.52 144.488C1099.52 136.808 1098.11 131.304 1095.29 127.976C1092.73 124.392 1089.28 122.6 1084.93 122.6C1082.88 122.6 1080.32 123.368 1077.25 124.904C1074.43 126.44 1071.49 128.488 1068.41 131.048C1065.6 133.352 1063.17 136.168 1061.12 139.496C1059.07 142.824 1058.05 146.408 1058.05 150.248C1058.05 156.392 1059.71 161.512 1063.04 165.608C1066.62 169.704 1070.97 173.544 1076.09 177.128C1081.21 180.712 1086.72 184.424 1092.61 188.264C1098.75 191.848 1104.38 196.584 1109.5 202.472C1114.62 208.36 1118.85 215.784 1122.17 224.744C1125.76 233.448 1127.55 244.584 1127.55 258.152ZM1121.29 353.384C1128.97 318.824 1136.26 285.032 1143.17 252.008C1145.99 238.184 1148.93 223.592 1152.01 208.232C1155.08 192.872 1158.02 177.768 1160.84 162.92C1163.65 148.072 1166.34 133.736 1168.9 119.912C1171.46 106.088 1173.64 93.416 1175.43 81.896C1182.85 79.592 1190.15 77.672 1197.32 76.136C1204.49 74.344 1211.78 72.808 1219.21 71.528C1226.89 70.248 1234.05 69.608 1240.71 69.608C1252.23 69.608 1261.83 71.528 1269.51 75.368C1277.45 79.208 1283.85 84.456 1288.71 91.112C1293.57 97.512 1297.03 105.064 1299.08 113.768C1301.13 122.472 1302.15 131.816 1302.15 141.8C1302.15 156.136 1299.46 169.96 1294.09 183.272C1288.97 196.584 1281.93 208.488 1272.97 218.984C1264.26 229.224 1254.15 237.416 1242.63 243.56C1231.37 249.704 1219.59 252.776 1207.3 252.776H1203.08C1201.03 261.48 1199.11 270.952 1197.32 281.192C1195.53 291.432 1193.99 300.904 1192.71 309.608C1190.92 319.848 1189.25 330.088 1187.72 340.328L1121.29 353.384ZM1228.42 116.072C1225.61 132.968 1222.79 148.968 1219.97 164.072C1217.16 179.176 1214.09 195.304 1210.76 212.456C1214.85 211.432 1219.08 209.128 1223.43 205.544C1228.04 201.704 1232.26 196.84 1236.1 190.952C1239.94 184.808 1243.01 177.768 1245.32 169.832C1247.62 161.896 1248.77 153.576 1248.77 144.872C1248.77 135.4 1246.6 128.232 1242.25 123.368C1238.15 118.504 1233.54 116.072 1228.42 116.072ZM1409.25 345.32C1402.85 346.344 1395.81 347.496 1388.13 348.776C1380.45 350.056 1373.54 351.208 1367.39 352.232C1368.42 343.784 1369.44 335.464 1370.47 327.272C1371.23 320.104 1371.87 312.936 1372.39 305.768C1373.15 298.6 1373.79 292.456 1374.31 287.336H1340.9L1325.54 342.632C1319.91 343.4 1313.25 344.296 1305.57 345.32C1297.89 346.088 1290.72 346.856 1284.07 347.624C1275.87 348.648 1267.81 349.672 1259.87 350.696C1270.11 316.648 1280.23 283.112 1290.21 250.088C1294.31 236.264 1298.53 221.8 1302.88 206.696C1307.49 191.592 1311.97 176.616 1316.32 161.768C1320.93 146.664 1325.28 132.2 1329.38 118.376C1333.47 104.552 1337.06 91.88 1340.13 80.36C1357.54 79.08 1375.2 77.544 1393.12 75.752C1411.3 73.96 1428.96 71.528 1446.11 68.456C1445.35 76.648 1444.45 86.888 1443.43 99.176C1442.66 111.208 1441.89 124.392 1441.12 138.728C1440.35 153.064 1439.59 168.04 1438.82 183.656C1438.05 199.272 1437.28 214.632 1436.51 229.736C1435.23 265.064 1433.83 302.568 1432.29 342.248C1424.61 343.528 1416.93 344.552 1409.25 345.32ZM1350.11 248.936C1351.14 248.936 1352.93 248.936 1355.49 248.936C1358.31 248.68 1361.12 248.552 1363.94 248.552C1367.01 248.296 1369.83 248.168 1372.39 248.168C1374.95 247.912 1376.74 247.656 1377.76 247.4C1377.76 245.864 1377.89 243.304 1378.15 239.72C1378.66 235.88 1379.04 231.656 1379.3 227.048C1379.81 222.184 1380.32 216.936 1380.83 211.304C1381.35 205.672 1381.86 200.168 1382.37 194.792C1383.39 181.736 1384.67 167.656 1386.21 152.552L1388.51 119.144L1382.75 119.528L1373.92 152.552L1350.11 248.936ZM1435.6 353.384C1442.51 319.336 1449.17 286.056 1455.57 253.544C1457.87 239.72 1460.43 225.384 1463.25 210.536C1466.06 195.432 1468.62 180.584 1470.93 165.992C1473.49 151.144 1475.79 136.936 1477.84 123.368C1480.14 109.544 1481.93 97 1483.21 85.736C1497.81 81.128 1513.55 77.8 1530.45 75.752C1547.34 73.448 1564.11 72.296 1580.75 72.296C1590.73 72.296 1598.93 73.448 1605.33 75.752C1611.98 78.056 1617.1 81.384 1620.69 85.736C1624.53 89.832 1627.21 94.696 1628.75 100.328C1630.29 105.96 1631.05 112.232 1631.05 119.144C1631.05 129.384 1629.26 139.496 1625.68 149.48C1622.09 159.208 1617.23 168.552 1611.09 177.512C1605.2 186.216 1598.29 194.28 1590.35 201.704C1582.67 208.872 1574.35 214.76 1565.39 219.368C1570 229.608 1574.86 240.872 1579.98 253.16C1585.36 265.192 1590.35 276.712 1594.96 287.72C1600.08 300.52 1605.33 313.32 1610.7 326.12L1551.18 346.856C1546.06 330.472 1541.45 315.112 1537.36 300.776C1535.57 294.888 1533.77 288.872 1531.98 282.728C1530.19 276.328 1528.53 270.312 1526.99 264.68C1525.45 259.048 1524.17 254.056 1523.15 249.704C1522.13 245.096 1521.49 241.384 1521.23 238.568L1516.24 240.104C1514.7 248.296 1512.78 257.896 1510.48 268.904C1508.43 279.912 1506.51 290.536 1504.72 300.776C1502.41 312.808 1500.11 324.968 1497.81 337.256L1435.6 353.384ZM1525.84 186.728C1530.7 186.216 1536.59 184.168 1543.5 180.584C1550.67 177 1557.45 172.776 1563.85 167.912C1570.25 162.792 1575.76 157.544 1580.37 152.168C1584.97 146.792 1587.28 142.056 1587.28 137.96C1587.28 135.144 1586.38 132.968 1584.59 131.432C1582.8 129.64 1580.24 128.36 1576.91 127.592C1573.84 126.568 1570.38 125.928 1566.54 125.672C1562.7 125.416 1558.73 125.288 1554.64 125.288C1551.82 125.288 1548.88 125.416 1545.81 125.672C1542.99 125.672 1540.43 125.672 1538.13 125.672L1525.84 186.728ZM1607.76 353.384L1658.06 80.36L1779.41 69.992C1777.62 75.624 1776.08 81.384 1774.8 87.272C1773.52 92.136 1772.24 97.256 1770.96 102.632C1769.94 107.752 1769.04 112.36 1768.27 116.456C1765.71 116.712 1762 116.968 1757.14 117.224C1752.53 117.224 1747.54 117.352 1742.16 117.608C1736.78 117.608 1731.28 117.608 1725.65 117.608C1720.27 117.608 1715.54 117.608 1711.44 117.608L1698 186.344C1705.94 185.832 1713.36 185.448 1720.27 185.192C1725.9 184.936 1731.66 184.808 1737.55 184.808C1743.44 184.808 1747.79 184.68 1750.61 184.424C1749.58 191.592 1748.56 198.632 1747.54 205.544C1746.77 212.456 1745.74 219.496 1744.46 226.664C1741.9 226.92 1737.68 227.176 1731.79 227.432C1726.16 227.432 1720.4 227.56 1714.51 227.816C1707.86 228.072 1700.56 228.328 1692.62 228.584L1679.57 299.24L1735.63 290.408L1731.79 334.184L1607.76 353.384Z" fill="#F01212"/>
<path d="M957.16 728.384C964.841 693.824 972.137 660.032 979.049 627.008C981.865 613.184 984.809 598.592 987.881 583.232C990.953 567.872 993.897 552.768 996.713 537.92C999.529 523.072 1002.22 508.736 1004.78 494.912C1007.34 481.088 1009.51 468.416 1011.3 456.896C1018.73 454.592 1026.02 452.672 1033.19 451.136C1040.36 449.344 1047.66 447.808 1055.08 446.528C1062.76 445.248 1069.93 444.608 1076.58 444.608C1088.1 444.608 1097.7 446.528 1105.38 450.368C1113.32 454.208 1119.72 459.456 1124.58 466.112C1129.45 472.512 1132.9 480.064 1134.95 488.768C1137 497.472 1138.02 506.816 1138.02 516.8C1138.02 531.136 1135.34 544.96 1129.96 558.272C1124.84 571.584 1117.8 583.488 1108.84 593.984C1100.14 604.224 1090.02 612.416 1078.5 618.56C1067.24 624.704 1055.46 627.776 1043.18 627.776H1038.95C1036.9 636.48 1034.98 645.952 1033.19 656.192C1031.4 666.432 1029.86 675.904 1028.58 684.608C1026.79 694.848 1025.13 705.088 1023.59 715.328L957.16 728.384ZM1064.3 491.072C1061.48 507.968 1058.66 523.968 1055.85 539.072C1053.03 554.176 1049.96 570.304 1046.63 587.456C1050.73 586.432 1054.95 584.128 1059.3 580.544C1063.91 576.704 1068.14 571.84 1071.98 565.952C1075.82 559.808 1078.89 552.768 1081.19 544.832C1083.5 536.896 1084.65 528.576 1084.65 519.872C1084.65 510.4 1082.47 503.232 1078.12 498.368C1074.02 493.504 1069.42 491.072 1064.3 491.072ZM1245.12 720.32C1238.72 721.344 1231.68 722.496 1224 723.776C1216.32 725.056 1209.41 726.208 1203.27 727.232C1204.29 718.784 1205.32 710.464 1206.34 702.272C1207.11 695.104 1207.75 687.936 1208.26 680.768C1209.03 673.6 1209.67 667.456 1210.18 662.336H1176.77L1161.41 717.632C1155.78 718.4 1149.12 719.296 1141.44 720.32C1133.76 721.088 1126.6 721.856 1119.94 722.624C1111.75 723.648 1103.68 724.672 1095.75 725.696C1105.99 691.648 1116.1 658.112 1126.08 625.088C1130.18 611.264 1134.4 596.8 1138.76 581.696C1143.36 566.592 1147.84 551.616 1152.2 536.768C1156.8 521.664 1161.16 507.2 1165.25 493.376C1169.35 479.552 1172.93 466.88 1176 455.36C1193.41 454.08 1211.08 452.544 1229 450.752C1247.17 448.96 1264.84 446.528 1281.99 443.456C1281.22 451.648 1280.32 461.888 1279.3 474.176C1278.53 486.208 1277.76 499.392 1277 513.728C1276.23 528.064 1275.46 543.04 1274.69 558.656C1273.92 574.272 1273.16 589.632 1272.39 604.736C1271.11 640.064 1269.7 677.568 1268.16 717.248C1260.48 718.528 1252.8 719.552 1245.12 720.32ZM1185.99 623.936C1187.01 623.936 1188.8 623.936 1191.36 623.936C1194.18 623.68 1197 623.552 1199.81 623.552C1202.88 623.296 1205.7 623.168 1208.26 623.168C1210.82 622.912 1212.61 622.656 1213.64 622.4C1213.64 620.864 1213.76 618.304 1214.02 614.72C1214.53 610.88 1214.92 606.656 1215.17 602.048C1215.68 597.184 1216.2 591.936 1216.71 586.304C1217.22 580.672 1217.73 575.168 1218.24 569.792C1219.27 556.736 1220.55 542.656 1222.08 527.552L1224.39 494.144L1218.63 494.528L1209.8 527.552L1185.99 623.936ZM1271.47 728.384C1278.39 694.336 1285.04 661.056 1291.44 628.544C1293.75 614.72 1296.31 600.384 1299.12 585.536C1301.94 570.432 1304.5 555.584 1306.8 540.992C1309.36 526.144 1311.67 511.936 1313.71 498.368C1316.02 484.544 1317.81 472 1319.09 460.736C1333.68 456.128 1349.43 452.8 1366.32 450.752C1383.22 448.448 1399.99 447.296 1416.63 447.296C1426.61 447.296 1434.8 448.448 1441.2 450.752C1447.86 453.056 1452.98 456.384 1456.56 460.736C1460.4 464.832 1463.09 469.696 1464.63 475.328C1466.16 480.96 1466.93 487.232 1466.93 494.144C1466.93 504.384 1465.14 514.496 1461.55 524.48C1457.97 534.208 1453.11 543.552 1446.96 552.512C1441.07 561.216 1434.16 569.28 1426.23 576.704C1418.55 583.872 1410.23 589.76 1401.27 594.368C1405.87 604.608 1410.74 615.872 1415.86 628.16C1421.23 640.192 1426.23 651.712 1430.83 662.72C1435.95 675.52 1441.2 688.32 1446.58 701.12L1387.06 721.856C1381.94 705.472 1377.33 690.112 1373.23 675.776C1371.44 669.888 1369.65 663.872 1367.86 657.728C1366.07 651.328 1364.4 645.312 1362.87 639.68C1361.33 634.048 1360.05 629.056 1359.03 624.704C1358 620.096 1357.36 616.384 1357.11 613.568L1352.11 615.104C1350.58 623.296 1348.66 632.896 1346.35 643.904C1344.31 654.912 1342.39 665.536 1340.59 675.776C1338.29 687.808 1335.99 699.968 1333.68 712.256L1271.47 728.384ZM1361.71 561.728C1366.58 561.216 1372.47 559.168 1379.38 555.584C1386.55 552 1393.33 547.776 1399.73 542.912C1406.13 537.792 1411.63 532.544 1416.24 527.168C1420.85 521.792 1423.15 517.056 1423.15 512.96C1423.15 510.144 1422.26 507.968 1420.47 506.432C1418.67 504.64 1416.11 503.36 1412.79 502.592C1409.71 501.568 1406.26 500.928 1402.42 500.672C1398.58 500.416 1394.61 500.288 1390.51 500.288C1387.7 500.288 1384.75 500.416 1381.68 500.672C1378.87 500.672 1376.31 500.672 1374 500.672L1361.71 561.728ZM1475.12 728.384C1481.01 700.224 1486.64 672.448 1492.02 645.056C1494.32 633.536 1496.63 621.504 1498.93 608.96C1501.23 596.416 1503.41 584.128 1505.46 572.096C1507.76 559.808 1509.68 548.032 1511.22 536.768C1513.01 525.248 1514.55 514.752 1515.83 505.28C1509.94 504.512 1503.92 504.256 1497.78 504.512C1491.89 504.768 1486 504 1480.11 502.208C1480.37 498.112 1480.5 493.376 1480.5 488C1480.5 482.624 1480.63 477.248 1480.88 471.872C1481.14 465.984 1481.39 459.712 1481.65 453.056C1488.31 453.568 1494.96 453.952 1501.62 454.208C1508.27 454.464 1514.93 454.592 1521.59 454.592C1534.64 454.592 1547.19 454.336 1559.22 453.824C1571.51 453.056 1582.77 452.288 1593.01 451.52C1603.51 450.496 1613.75 449.344 1623.73 448.064L1619.51 468.8C1618.23 474.688 1616.95 480.704 1615.67 486.848C1614.64 492.992 1613.62 498.24 1612.59 502.592C1606.96 504.128 1601.2 505.28 1595.31 506.048C1589.68 506.56 1584.05 507.328 1578.42 508.352C1576.63 517.056 1574.71 526.784 1572.66 537.536C1570.61 548.032 1568.56 559.04 1566.51 570.56C1564.72 581.824 1562.93 593.344 1561.14 605.12C1559.35 616.896 1557.55 628.16 1555.76 638.912C1551.67 664.256 1547.83 690.496 1544.24 717.632L1475.12 728.384ZM1749.8 633.152C1749.8 647.488 1746.98 660.544 1741.35 672.32C1735.98 683.84 1728.55 693.824 1719.08 702.272C1709.86 710.72 1698.86 717.248 1686.06 721.856C1673.51 726.464 1659.94 728.768 1645.35 728.768C1635.11 728.768 1624.87 726.08 1614.63 720.704C1604.39 715.072 1594.54 706.24 1585.06 694.208L1613.48 638.528C1615.27 641.856 1617.96 645.312 1621.54 648.896C1625.13 652.224 1629.1 655.168 1633.45 657.728C1638.06 660.288 1642.54 662.464 1646.89 664.256C1651.5 665.792 1655.59 666.56 1659.18 666.56C1662.25 666.56 1665.45 666.048 1668.78 665.024C1672.1 664 1675.18 662.464 1677.99 660.416C1680.81 658.368 1682.98 656.064 1684.52 653.504C1686.31 650.688 1687.21 647.488 1687.21 643.904C1687.21 637.76 1685.16 632.128 1681.06 627.008C1677.22 621.632 1672.36 616.64 1666.47 612.032C1660.58 607.168 1654.18 602.304 1647.27 597.44C1640.36 592.576 1633.96 587.456 1628.07 582.08C1622.44 576.704 1617.58 570.688 1613.48 564.032C1609.38 557.376 1607.34 549.952 1607.34 541.76C1607.34 528.448 1611.3 516.032 1619.24 504.512C1627.18 492.992 1637.03 483.136 1648.81 474.944C1660.84 466.496 1673.9 459.84 1687.98 454.976C1702.06 450.112 1715.37 447.68 1727.91 447.68C1734.82 447.68 1741.35 448.576 1747.5 450.368C1753.64 451.904 1758.89 454.592 1763.24 458.432C1767.85 462.016 1771.43 466.624 1773.99 472.256C1776.81 477.888 1778.22 484.928 1778.22 493.376C1778.22 496.96 1777.83 500.544 1777.06 504.128C1776.55 507.712 1776.04 511.552 1775.53 515.648L1719.85 531.776C1720.36 529.728 1720.74 527.68 1721 525.632C1721.51 523.584 1721.77 521.536 1721.77 519.488C1721.77 511.808 1720.36 506.304 1717.54 502.976C1714.98 499.392 1711.53 497.6 1707.18 497.6C1705.13 497.6 1702.57 498.368 1699.5 499.904C1696.68 501.44 1693.74 503.488 1690.66 506.048C1687.85 508.352 1685.42 511.168 1683.37 514.496C1681.32 517.824 1680.3 521.408 1680.3 525.248C1680.3 531.392 1681.96 536.512 1685.29 540.608C1688.87 544.704 1693.22 548.544 1698.34 552.128C1703.46 555.712 1708.97 559.424 1714.86 563.264C1721 566.848 1726.63 571.584 1731.75 577.472C1736.87 583.36 1741.1 590.784 1744.42 599.744C1748.01 608.448 1749.8 619.584 1749.8 633.152Z" fill="#F01212"/>
</svg>
